<svg xmlns="http://www.w3.org/2000/svg" xmlns:svg="http://www.w3.org/2000/svg" xmlns:xlink="http://www.w3.org/1999/xlink" id="svg113" width="2560" height="1440" version="1.1" viewBox="0 0 677.33 381"><defs id="defs63"><linearGradient id="linearGradient877" x1="182.64" x2="188.93" y1="128.46" y2="37.452" gradientTransform="translate(1166.3 -456.5)" gradientUnits="userSpaceOnUse"><stop id="stop2" offset="0" stop-color="#ffba23"/><stop id="stop4" offset=".618" stop-color="#fe9a06"/><stop id="stop6" offset="1" stop-color="#d0e6fb"/></linearGradient><linearGradient id="linearGradient885" x1="130.78" x2="141.19" y1="57.604" y2="-17.656" gradientTransform="matrix(3.7795 0 0 3.7795 4408.1 -1725.4)" gradientUnits="userSpaceOnUse"><stop id="stop9" offset="0" stop-color="#e0f1f9"/><stop id="stop11" offset="1" stop-color="#b1d0fe"/></linearGradient><linearGradient id="linearGradient898" x1="1317.6" x2="-550.49" y1="194.9" y2="-387.51" gradientTransform="translate(1267.3 330.01)" gradientUnits="userSpaceOnUse"><stop id="stop14" offset="0" stop-color="#0776b9"/><stop id="stop16" offset="1" stop-color="#1ab4f0"/></linearGradient><linearGradient id="linearGradient906" x1="379.44" x2="48.459" y1="46.942" y2="-107.12" gradientTransform="matrix(3.7795 0 0 3.7795 1267.3 330.01)" gradientUnits="userSpaceOnUse"><stop id="stop19" offset="0" stop-color="#0d73bb"/><stop id="stop21" offset="1" stop-color="#11adea"/></linearGradient><linearGradient id="linearGradient914" x1="352.32" x2="118.9" y1="-62.434" y2="-66.848" gradientTransform="translate(1166.3 -456.5)" gradientUnits="userSpaceOnUse"><stop id="stop24" offset="0" stop-color="#0f70b7"/><stop id="stop26" offset="1" stop-color="#1092d1"/></linearGradient><linearGradient id="linearGradient922" x1="-9.904" x2="19.694" y1="216.11" y2="140.66" gradientTransform="translate(1166.3 -456.5)" gradientUnits="userSpaceOnUse"><stop id="stop29" offset="0" stop-color="#fd0168"/><stop id="stop31" offset="1" stop-color="#fe0731"/></linearGradient><linearGradient id="linearGradient965" x1="-43.428" x2="-26.875" y1="140.2" y2="-49.675" gradientTransform="translate(1166.3 -456.5)" gradientUnits="userSpaceOnUse"><stop id="stop34" offset="0" stop-color="#ff604b"/><stop id="stop36" offset="1" stop-color="#fd0c67"/></linearGradient><linearGradient id="linearGradient983" x1="3553.8" x2="3818.9" y1="-441.58" y2="-1203.5" gradientUnits="userSpaceOnUse"><stop id="stop39" offset="0" stop-color="#493b76"/><stop id="stop41" offset="1" stop-color="#fd0263"/></linearGradient><linearGradient id="linearGradient987" x1="166.31" x2="127.54" y1="215.82" y2="111.19" gradientTransform="translate(1166.3 -456.5)" gradientUnits="userSpaceOnUse"><stop id="stop44" offset="0" stop-color="#fe3235"/><stop id="stop46" offset="1" stop-color="#ff5637" stop-opacity="0"/></linearGradient><linearGradient id="linearGradient886" x1="1476" x2="1397.3" y1="-245.55" y2="-201.12" gradientUnits="userSpaceOnUse"><stop id="stop49" offset="0" stop-color="#fe3235"/><stop id="stop51" offset="1" stop-color="#fe3235" stop-opacity="0"/></linearGradient><filter id="filter951" width="1.075" height="1.133" x="-.037" y="-.067" color-interpolation-filters="sRGB"><feGaussianBlur id="feGaussianBlur54" stdDeviation="10.583"/></filter><filter id="filter1038" width="1.234" height="1.395" x="-.117" y="-.197" color-interpolation-filters="sRGB"><feGaussianBlur id="feGaussianBlur57" stdDeviation="16.53"/></filter><mask id="mask1097" maskUnits="userSpaceOnUse"><rect style="paint-order:stroke fill markers" id="rect60" width="338.67" height="201.08" x="1000.3" y="-453.86" fill="#fff" stroke-width="0" rx="25.319" ry="25.319"/></mask><linearGradient id="linearGradient1077" x1="-43.428" x2="-26.875" y1="140.2" y2="-49.675" gradientTransform="translate(1166.3,-456.5)" gradientUnits="userSpaceOnUse" xlink:href="#linearGradient965"/><linearGradient id="linearGradient1079" x1="166.31" x2="127.54" y1="215.82" y2="111.19" gradientTransform="translate(1166.3,-456.5)" gradientUnits="userSpaceOnUse" xlink:href="#linearGradient987"/><linearGradient id="linearGradient1081" x1="-9.904" x2="19.694" y1="216.11" y2="140.66" gradientTransform="translate(1166.3,-456.5)" gradientUnits="userSpaceOnUse" xlink:href="#linearGradient922"/><linearGradient id="linearGradient1083" x1="1317.6" x2="-550.49" y1="194.9" y2="-387.51" gradientTransform="translate(1267.3,330.01)" gradientUnits="userSpaceOnUse" xlink:href="#linearGradient898"/><linearGradient id="linearGradient1085" x1="130.78" x2="141.19" y1="57.604" y2="-17.656" gradientTransform="matrix(3.7795,0,0,3.7795,4408.1,-1725.4)" gradientUnits="userSpaceOnUse" xlink:href="#linearGradient885"/><linearGradient id="linearGradient1087" x1="379.44" x2="48.459" y1="46.942" y2="-107.12" gradientTransform="matrix(3.7795,0,0,3.7795,1267.3,330.01)" gradientUnits="userSpaceOnUse" xlink:href="#linearGradient906"/><linearGradient id="linearGradient1089" x1="352.32" x2="118.9" y1="-62.434" y2="-66.848" gradientTransform="translate(1166.3,-456.5)" gradientUnits="userSpaceOnUse" xlink:href="#linearGradient914"/><linearGradient id="linearGradient1091" x1="182.64" x2="188.93" y1="128.46" y2="37.452" gradientTransform="translate(1166.3,-456.5)" gradientUnits="userSpaceOnUse" xlink:href="#linearGradient877"/><linearGradient id="linearGradient1093" x1="3553.8" x2="3818.9" y1="-441.58" y2="-1203.5" gradientUnits="userSpaceOnUse" xlink:href="#linearGradient983"/><linearGradient id="linearGradient1095" x1="1476" x2="1397.3" y1="-245.55" y2="-201.12" gradientUnits="userSpaceOnUse" xlink:href="#linearGradient886"/><linearGradient id="linearGradient1097" x1="-43.428" x2="-26.875" y1="140.2" y2="-49.675" gradientTransform="translate(1166.3,-456.5)" gradientUnits="userSpaceOnUse" xlink:href="#linearGradient965"/><linearGradient id="linearGradient1099" x1="166.31" x2="127.54" y1="215.82" y2="111.19" gradientTransform="translate(1166.3,-456.5)" gradientUnits="userSpaceOnUse" xlink:href="#linearGradient987"/><linearGradient id="linearGradient1101" x1="-9.904" x2="19.694" y1="216.11" y2="140.66" gradientTransform="translate(1166.3,-456.5)" gradientUnits="userSpaceOnUse" xlink:href="#linearGradient922"/><linearGradient id="linearGradient1103" x1="1317.6" x2="-550.49" y1="194.9" y2="-387.51" gradientTransform="translate(1267.3,330.01)" gradientUnits="userSpaceOnUse" xlink:href="#linearGradient898"/><linearGradient id="linearGradient1105" x1="130.78" x2="141.19" y1="57.604" y2="-17.656" gradientTransform="matrix(3.7795,0,0,3.7795,4408.1,-1725.4)" gradientUnits="userSpaceOnUse" xlink:href="#linearGradient885"/><linearGradient id="linearGradient1107" x1="379.44" x2="48.459" y1="46.942" y2="-107.12" gradientTransform="matrix(3.7795,0,0,3.7795,1267.3,330.01)" gradientUnits="userSpaceOnUse" xlink:href="#linearGradient906"/><linearGradient id="linearGradient1109" x1="352.32" x2="118.9" y1="-62.434" y2="-66.848" gradientTransform="translate(1166.3,-456.5)" gradientUnits="userSpaceOnUse" xlink:href="#linearGradient914"/><linearGradient id="linearGradient1111" x1="182.64" x2="188.93" y1="128.46" y2="37.452" gradientTransform="translate(1166.3,-456.5)" gradientUnits="userSpaceOnUse" xlink:href="#linearGradient877"/><linearGradient id="linearGradient1113" x1="3553.8" x2="3818.9" y1="-441.58" y2="-1203.5" gradientUnits="userSpaceOnUse" xlink:href="#linearGradient983"/><linearGradient id="linearGradient1115" x1="1476" x2="1397.3" y1="-245.55" y2="-201.12" gradientUnits="userSpaceOnUse" xlink:href="#linearGradient886"/><linearGradient id="linearGradient1167" x1="-43.428" x2="-26.875" y1="140.2" y2="-49.675" gradientTransform="translate(1166.3,-456.5)" gradientUnits="userSpaceOnUse" xlink:href="#linearGradient965"/><linearGradient id="linearGradient1169" x1="166.31" x2="127.54" y1="215.82" y2="111.19" gradientTransform="translate(1166.3,-456.5)" gradientUnits="userSpaceOnUse" xlink:href="#linearGradient987"/><linearGradient id="linearGradient1171" x1="-9.904" x2="19.694" y1="216.11" y2="140.66" gradientTransform="translate(1166.3,-456.5)" gradientUnits="userSpaceOnUse" xlink:href="#linearGradient922"/><linearGradient id="linearGradient1173" x1="1317.6" x2="-550.49" y1="194.9" y2="-387.51" gradientTransform="translate(1267.3,330.01)" gradientUnits="userSpaceOnUse" xlink:href="#linearGradient898"/><linearGradient id="linearGradient1175" x1="130.78" x2="141.19" y1="57.604" y2="-17.656" gradientTransform="matrix(3.7795,0,0,3.7795,4408.1,-1725.4)" gradientUnits="userSpaceOnUse" xlink:href="#linearGradient885"/><linearGradient id="linearGradient1177" x1="379.44" x2="48.459" y1="46.942" y2="-107.12" gradientTransform="matrix(3.7795,0,0,3.7795,1267.3,330.01)" gradientUnits="userSpaceOnUse" xlink:href="#linearGradient906"/><linearGradient id="linearGradient1179" x1="352.32" x2="118.9" y1="-62.434" y2="-66.848" gradientTransform="translate(1166.3,-456.5)" gradientUnits="userSpaceOnUse" xlink:href="#linearGradient914"/><linearGradient id="linearGradient1181" x1="182.64" x2="188.93" y1="128.46" y2="37.452" gradientTransform="translate(1166.3,-456.5)" gradientUnits="userSpaceOnUse" xlink:href="#linearGradient877"/><linearGradient id="linearGradient1183" x1="3553.8" x2="3818.9" y1="-441.58" y2="-1203.5" gradientUnits="userSpaceOnUse" xlink:href="#linearGradient983"/><linearGradient id="linearGradient1185" x1="1476" x2="1397.3" y1="-245.55" y2="-201.12" gradientUnits="userSpaceOnUse" xlink:href="#linearGradient886"/><clipPath id="clipPath1371" clipPathUnits="userSpaceOnUse"><rect style="opacity:.15;fill:#000;stroke-width:2.16542;stroke-linecap:round;stroke-linejoin:round;paint-order:stroke fill markers" id="rect1373" width="677.387" height="285.751" x="830.991" y="-496.196"/></clipPath><filter style="color-interpolation-filters:sRGB" id="filter1736" width="1.075" height="1.133" x="-.037" y="-.067"><feGaussianBlur id="feGaussianBlur1738" stdDeviation="10.584"/></filter><clipPath id="clipPath1824" clipPathUnits="userSpaceOnUse"><rect id="rect1826" width="285.772" height="169.334" x="1026.799" y="-437.987" fill="#000" stroke-width="0" opacity=".25" rx="21.879" ry="21.878" style="paint-order:stroke fill markers"/></clipPath><filter style="color-interpolation-filters:sRGB" id="filter1830" width="1.234" height="1.395" x="-.117" y="-.198"><feGaussianBlur id="feGaussianBlur1832" stdDeviation="13.937"/></filter><linearGradient id="linearGradient2012" x1="-43.428" x2="-26.875" y1="140.2" y2="-49.675" gradientTransform="translate(1166.3,-456.5)" gradientUnits="userSpaceOnUse" xlink:href="#linearGradient965"/><linearGradient id="linearGradient2014" x1="166.31" x2="127.54" y1="215.82" y2="111.19" gradientTransform="translate(1166.3,-456.5)" gradientUnits="userSpaceOnUse" xlink:href="#linearGradient987"/><linearGradient id="linearGradient2016" x1="-9.904" x2="19.694" y1="216.11" y2="140.66" gradientTransform="translate(1166.3,-456.5)" gradientUnits="userSpaceOnUse" xlink:href="#linearGradient922"/><linearGradient id="linearGradient2018" x1="1317.6" x2="-550.49" y1="194.9" y2="-387.51" gradientTransform="translate(1267.3,330.01)" gradientUnits="userSpaceOnUse" xlink:href="#linearGradient898"/><linearGradient id="linearGradient2020" x1="130.78" x2="141.19" y1="57.604" y2="-17.656" gradientTransform="matrix(3.7795,0,0,3.7795,4408.1,-1725.4)" gradientUnits="userSpaceOnUse" xlink:href="#linearGradient885"/><linearGradient id="linearGradient2022" x1="379.44" x2="48.459" y1="46.942" y2="-107.12" gradientTransform="matrix(3.7795,0,0,3.7795,1267.3,330.01)" gradientUnits="userSpaceOnUse" xlink:href="#linearGradient906"/><linearGradient id="linearGradient2024" x1="352.32" x2="118.9" y1="-62.434" y2="-66.848" gradientTransform="translate(1166.3,-456.5)" gradientUnits="userSpaceOnUse" xlink:href="#linearGradient914"/><linearGradient id="linearGradient2026" x1="182.64" x2="188.93" y1="128.46" y2="37.452" gradientTransform="translate(1166.3,-456.5)" gradientUnits="userSpaceOnUse" xlink:href="#linearGradient877"/><linearGradient id="linearGradient2028" x1="3553.8" x2="3818.9" y1="-441.58" y2="-1203.5" gradientUnits="userSpaceOnUse" xlink:href="#linearGradient983"/><linearGradient id="linearGradient2030" x1="1476" x2="1397.3" y1="-245.55" y2="-201.12" gradientUnits="userSpaceOnUse" xlink:href="#linearGradient886"/><linearGradient id="linearGradient2032" x1="-43.428" x2="-26.875" y1="140.2" y2="-49.675" gradientTransform="translate(1166.3,-456.5)" gradientUnits="userSpaceOnUse" xlink:href="#linearGradient965"/><linearGradient id="linearGradient2034" x1="166.31" x2="127.54" y1="215.82" y2="111.19" gradientTransform="translate(1166.3,-456.5)" gradientUnits="userSpaceOnUse" xlink:href="#linearGradient987"/><linearGradient id="linearGradient2036" x1="-9.904" x2="19.694" y1="216.11" y2="140.66" gradientTransform="translate(1166.3,-456.5)" gradientUnits="userSpaceOnUse" xlink:href="#linearGradient922"/><linearGradient id="linearGradient2038" x1="1317.6" x2="-550.49" y1="194.9" y2="-387.51" gradientTransform="translate(1267.3,330.01)" gradientUnits="userSpaceOnUse" xlink:href="#linearGradient898"/><linearGradient id="linearGradient2040" x1="130.78" x2="141.19" y1="57.604" y2="-17.656" gradientTransform="matrix(3.7795,0,0,3.7795,4408.1,-1725.4)" gradientUnits="userSpaceOnUse" xlink:href="#linearGradient885"/><linearGradient id="linearGradient2042" x1="379.44" x2="48.459" y1="46.942" y2="-107.12" gradientTransform="matrix(3.7795,0,0,3.7795,1267.3,330.01)" gradientUnits="userSpaceOnUse" xlink:href="#linearGradient906"/><linearGradient id="linearGradient2044" x1="352.32" x2="118.9" y1="-62.434" y2="-66.848" gradientTransform="translate(1166.3,-456.5)" gradientUnits="userSpaceOnUse" xlink:href="#linearGradient914"/><linearGradient id="linearGradient2046" x1="182.64" x2="188.93" y1="128.46" y2="37.452" gradientTransform="translate(1166.3,-456.5)" gradientUnits="userSpaceOnUse" xlink:href="#linearGradient877"/><linearGradient id="linearGradient2048" x1="3553.8" x2="3818.9" y1="-441.58" y2="-1203.5" gradientUnits="userSpaceOnUse" xlink:href="#linearGradient983"/><linearGradient id="linearGradient2050" x1="1476" x2="1397.3" y1="-245.55" y2="-201.12" gradientUnits="userSpaceOnUse" xlink:href="#linearGradient886"/></defs><g id="whitesur-2k"><g id="g2724" transform="matrix(0.99992146,0,0,0.99999768,-830.93473,543.81874)"><rect id="rect65" width="677.33" height="381" x="831" y="-543.82" fill="url(#linearGradient965)" stroke-linecap="round" stroke-linejoin="round" stroke-width=".293" ry=".08" style="fill:url(#linearGradient1077);paint-order:stroke fill markers"/><rect id="rect67" width="677.33" height="381" x="831" y="-543.82" fill="url(#linearGradient987)" stroke-linecap="round" stroke-linejoin="round" stroke-width=".293" ry=".08" style="fill:url(#linearGradient1079);paint-order:stroke fill markers"/><path id="path69" fill="url(#linearGradient922)" d="m 831,-476.36 v 313.42 c 0,0.0663 0.0536,0.11935 0.11988,0.11935 h 677.09002 c 0.066,0 0.1199,-0.0531 0.1199,-0.11935 v -81.087 c -7.3958,-4.9154 -16.821,-9.4105 -28.73,-12.375 -41.892,-10.428 -59.805,14.251 -86.238,5.4131 -26.433,-8.8379 -73.685,-15.642 -128.76,-19.928 -55.076,-4.2862 -63.176,-19.999 -123,-49.078 -59.827,-29.079 -153.23002,-51.571 -223.65002,-88.306 -44.008,-22.957 -72.083,-50.574 -86.953,-68.06 z" style="fill:url(#linearGradient1081)"/><path id="path71" fill="url(#linearGradient898)" d="m 643.35,0 c 4.4798,2.0341 182.41,82.968 266.61,144.25 20.311,14.782 40.694,30.758 60.535,46.842 0.0378,0.004 0.0375,1.4e-4 0.0488,0.008 494.93,215.17 833.18,316.22 1589.5,400.37 V 0.43 c -0.01,-0.23288 -0.1932,-0.41734 -0.4257,-0.42969 H 643.41813 Z" transform="matrix(0.26458,0,0,0.26458,831,-543.82)" style="fill:url(#linearGradient1083)"/><path id="path73" fill="url(#linearGradient885)" d="m 4111.1,-1864.3 c -1.3444,0.2578 23.713,19.906 23.713,19.906 0,0 80.148,75.846 128.12,101.81 100.96,54.653 194.55,84.189 299.2,107.26 48.199,38.178 144.73,85.936 180.83,97.576 400.06,99.37 661.2,173.73 957.81,365.55 v -164.23 c -3.9595,-1.7972 -8.4944,-3.8504 -13.545,-6.123 5.0466,2.2707 9.584,4.3233 13.545,6.1211 v -209.28 c -20.952,-12.17 -51.449,-28.241 -76.848,-35.004 -43.324,-11.536 -164.59,-20.034 -325.03,-37.262 -160.44,-17.228 -223,-86.187 -273.9,-103.52 -50.899,-17.328 -84.668,-3.1122 -134.5,-31.008 -49.834,-27.896 -106.86,-45.646 -176,-45.646 -69.141,0 -216.5,18.009 -340.85,-0.9493 -124.35,-18.958 -184.32,-39.172 -262.32,-65.176 -0.098,-0.034 -0.1694,-0.047 -0.2148,-0.039 z m 1192,378.46 c 7.11,1.5057 13.758,2.9253 19.383,4.1504 3.2484,0.7076 6.6014,1.4838 10.051,2.3262 -3.449,-0.8423 -6.8026,-1.6187 -10.051,-2.3262 -5.532,-1.205 -12.52,-2.6901 -19.383,-4.1504 z" transform="scale(0.26458)" style="fill:url(#linearGradient1085)"/><path id="path75" fill="url(#linearGradient906)" d="m 923.11,0 c 8.1247,5.0782 83.98,50.523 231.85,73.447 156.74,24.3 118.34,5.3138 210.23,22.279 91.882,16.965 163.11,68.987 259.77,89.33 96.66,20.343 151.64,8.8399 247.4,34.232 95.76,25.393 135.98,69.539 276.79,108.21 126.64,34.781 340.53,94.278 410.85,127.46 V 0.448 c -0.01,-0.24581 -0.2055,-0.44336 -0.4511,-0.44336 z" transform="matrix(0.26458,0,0,0.26458,831,-543.82)" style="fill:url(#linearGradient1087)"/><path id="path77" fill="url(#linearGradient914)" d="m 1295.8,-543.82 c 8.6497,5.1649 21.301,11.964 39.881,20.804 57.089,27.163 93.518,36.334 121.44,40.02 20.302,2.6807 41.257,6.8388 51.257,8.923 v -69.628 c 0,-0.0663 -0.054,-0.11989 -0.1199,-0.11989 z" style="fill:url(#linearGradient1089)"/><path id="path79" fill="url(#linearGradient877)" d="m 1201.1,-434.04 c 17.262,6.5032 30.879,30.051 45.831,34.139 19.906,5.4422 36.29,6.0404 57.02,16.6 20.731,10.56 39.033,29.502 60.738,33.708 21.705,4.2064 31.462,2.3177 42.952,10.898 8.0383,6.0027 13.193,19.259 26.76,24.726 20.42,8.2276 45.499,1.4352 58.657,2.2216 8.483,0.50701 13.043,1.1792 15.237,1.5958 v -43.453 c -16.762,-7.6084 -72.578,-32.441 -100.1,-38.435 -32.589,-7.0987 -156.59,-31.743 -187.55,-38.194 -4.8135,-1.003 -14.66,-2.6716 -19.555,-3.8075 z" style="fill:url(#linearGradient1091)"/><path id="path81" fill="url(#linearGradient983)" d="m 3140.8,-1497.9 v 882.18 c 0,0.16819 0.1365,0.30468 0.3047,0.30468 h 2459 c -19.362,-33.265 -59.938,-78.491 -131.93,-118.48 -108.75,-60.409 -279.88,-107.68 -559.57,-148.09 -279.69,-40.406 -521.37,-110 -773.31,-158.48998 -251.94,-48.487 -585.81,-199.64 -733.98,-284.03 -142.6,-81.216 -252.38,-167 -260.52,-173.4 z" transform="scale(0.26458)" style="fill:url(#linearGradient1093)"/><path id="path83" fill="url(#linearGradient886)" d="m 831,-476.36 v 313.42 c 0,0.0663 0.0536,0.11935 0.11988,0.11935 h 677.09002 c 0.066,0 0.1199,-0.0531 0.1199,-0.11935 v -81.087 c -7.3958,-4.9154 -16.821,-9.4105 -28.73,-12.375 -41.892,-10.428 -59.805,14.251 -86.238,5.4131 -26.433,-8.8379 -73.685,-15.642 -128.76,-19.928 -55.076,-4.2862 -63.176,-19.999 -123,-49.078 -59.827,-29.079 -153.23002,-51.571 -223.65002,-88.306 -44.008,-22.957 -72.083,-50.574 -86.953,-68.06 z" opacity=".75" style="fill:url(#linearGradient1095)"/></g><rect style="paint-order:stroke fill markers;opacity:.15" id="rect87" width="338.67" height="201.08" x="169.33" y="97.082" fill="#000" stroke-width="0" filter="url(#filter1038)" opacity=".25" rx="25.319" ry="25.319" transform="scale(0.99992146,0.99999768)"/><g id="g109" filter="url(#filter951)" mask="url(#mask1097)" transform="matrix(0.99992146,0,0,0.99999768,-830.93473,543.81874)"><rect id="rect89" width="677.33" height="381" x="831" y="-543.82" fill="url(#linearGradient965)" stroke-linecap="round" stroke-linejoin="round" stroke-width=".293" ry=".08" style="fill:url(#linearGradient1097);paint-order:stroke fill markers"/><rect id="rect91" width="677.33" height="381" x="831" y="-543.82" fill="url(#linearGradient987)" stroke-linecap="round" stroke-linejoin="round" stroke-width=".293" ry=".08" style="fill:url(#linearGradient1099);paint-order:stroke fill markers"/><path id="path93" fill="url(#linearGradient922)" d="m 831,-476.36 v 313.42 c 0,0.0663 0.0536,0.11935 0.11988,0.11935 h 677.09002 c 0.066,0 0.1199,-0.0531 0.1199,-0.11935 v -81.087 c -7.3958,-4.9154 -16.821,-9.4105 -28.73,-12.375 -41.892,-10.428 -59.805,14.251 -86.238,5.4131 -26.433,-8.8379 -73.685,-15.642 -128.76,-19.928 -55.076,-4.2862 -63.176,-19.999 -123,-49.078 -59.827,-29.079 -153.23002,-51.571 -223.65002,-88.306 -44.008,-22.957 -72.083,-50.574 -86.953,-68.06 z" style="fill:url(#linearGradient1101)"/><path id="path95" fill="url(#linearGradient898)" d="m 643.35,0 c 4.4798,2.0341 182.41,82.968 266.61,144.25 20.311,14.782 40.694,30.758 60.535,46.842 0.0378,0.004 0.0375,1.4e-4 0.0488,0.008 494.93,215.17 833.18,316.22 1589.5,400.37 V 0.43 c -0.01,-0.23288 -0.1932,-0.41734 -0.4257,-0.42969 H 643.41813 Z" transform="matrix(0.26458,0,0,0.26458,831,-543.82)" style="fill:url(#linearGradient1103)"/><path id="path97" fill="url(#linearGradient885)" d="m 4111.1,-1864.3 c -1.3444,0.2578 23.713,19.906 23.713,19.906 0,0 80.148,75.846 128.12,101.81 100.96,54.653 194.55,84.189 299.2,107.26 48.199,38.178 144.73,85.936 180.83,97.576 400.06,99.37 661.2,173.73 957.81,365.55 v -164.23 c -3.9595,-1.7972 -8.4944,-3.8504 -13.545,-6.123 5.0466,2.2707 9.584,4.3233 13.545,6.1211 v -209.28 c -20.952,-12.17 -51.449,-28.241 -76.848,-35.004 -43.324,-11.536 -164.59,-20.034 -325.03,-37.262 -160.44,-17.228 -223,-86.187 -273.9,-103.52 -50.899,-17.328 -84.668,-3.1122 -134.5,-31.008 -49.834,-27.896 -106.86,-45.646 -176,-45.646 -69.141,0 -216.5,18.009 -340.85,-0.9493 -124.35,-18.958 -184.32,-39.172 -262.32,-65.176 -0.098,-0.034 -0.1694,-0.047 -0.2148,-0.039 z m 1192,378.46 c 7.11,1.5057 13.758,2.9253 19.383,4.1504 3.2484,0.7076 6.6014,1.4838 10.051,2.3262 -3.449,-0.8423 -6.8026,-1.6187 -10.051,-2.3262 -5.532,-1.205 -12.52,-2.6901 -19.383,-4.1504 z" transform="scale(0.26458)" style="fill:url(#linearGradient1105)"/><path id="path99" fill="url(#linearGradient906)" d="m 923.11,0 c 8.1247,5.0782 83.98,50.523 231.85,73.447 156.74,24.3 118.34,5.3138 210.23,22.279 91.882,16.965 163.11,68.987 259.77,89.33 96.66,20.343 151.64,8.8399 247.4,34.232 95.76,25.393 135.98,69.539 276.79,108.21 126.64,34.781 340.53,94.278 410.85,127.46 V 0.448 c -0.01,-0.24581 -0.2055,-0.44336 -0.4511,-0.44336 z" transform="matrix(0.26458,0,0,0.26458,831,-543.82)" style="fill:url(#linearGradient1107)"/><path id="path101" fill="url(#linearGradient914)" d="m 1295.8,-543.82 c 8.6497,5.1649 21.301,11.964 39.881,20.804 57.089,27.163 93.518,36.334 121.44,40.02 20.302,2.6807 41.257,6.8388 51.257,8.923 v -69.628 c 0,-0.0663 -0.054,-0.11989 -0.1199,-0.11989 z" style="fill:url(#linearGradient1109)"/><path id="path103" fill="url(#linearGradient877)" d="m 1201.1,-434.04 c 17.262,6.5032 30.879,30.051 45.831,34.139 19.906,5.4422 36.29,6.0404 57.02,16.6 20.731,10.56 39.033,29.502 60.738,33.708 21.705,4.2064 31.462,2.3177 42.952,10.898 8.0383,6.0027 13.193,19.259 26.76,24.726 20.42,8.2276 45.499,1.4352 58.657,2.2216 8.483,0.50701 13.043,1.1792 15.237,1.5958 v -43.453 c -16.762,-7.6084 -72.578,-32.441 -100.1,-38.435 -32.589,-7.0987 -156.59,-31.743 -187.55,-38.194 -4.8135,-1.003 -14.66,-2.6716 -19.555,-3.8075 z" style="fill:url(#linearGradient1111)"/><path id="path105" fill="url(#linearGradient983)" d="m 3140.8,-1497.9 v 882.18 c 0,0.16819 0.1365,0.30468 0.3047,0.30468 h 2459 c -19.362,-33.265 -59.938,-78.491 -131.93,-118.48 -108.75,-60.409 -279.88,-107.68 -559.57,-148.09 -279.69,-40.406 -521.37,-110 -773.31,-158.48998 -251.94,-48.487 -585.81,-199.64 -733.98,-284.03 -142.6,-81.216 -252.38,-167 -260.52,-173.4 z" transform="scale(0.26458)" style="fill:url(#linearGradient1113)"/><path id="path107" fill="url(#linearGradient886)" d="m 831,-476.36 v 313.42 c 0,0.0663 0.0536,0.11935 0.11988,0.11935 h 677.09002 c 0.066,0 0.1199,-0.0531 0.1199,-0.11935 v -81.087 c -7.3958,-4.9154 -16.821,-9.4105 -28.73,-12.375 -41.892,-10.428 -59.805,14.251 -86.238,5.4131 -26.433,-8.8379 -73.685,-15.642 -128.76,-19.928 -55.076,-4.2862 -63.176,-19.999 -123,-49.078 -59.827,-29.079 -153.23002,-51.571 -223.65002,-88.306 -44.008,-22.957 -72.083,-50.574 -86.953,-68.06 z" opacity=".75" style="fill:url(#linearGradient1115)"/></g><rect id="rect111" width="338.643" height="201.08" x="169.317" y="89.958" fill="#000" stroke-width="0" opacity=".25" rx="25.317" ry="25.319" style="paint-order:stroke fill markers"/></g><g id="whitesur-ultrawide"><g id="g1137" clip-path="url(#clipPath1371)" transform="matrix(0.99992146,0,0,0.99999768,-41.070041,543.81874)"><rect id="rect1117" width="677.33" height="381" x="831" y="-543.82" fill="url(#linearGradient965)" stroke-linecap="round" stroke-linejoin="round" stroke-width=".293" ry=".08" style="fill:url(#linearGradient1167);paint-order:stroke fill markers"/><rect id="rect1119" width="677.33" height="381" x="831" y="-543.82" fill="url(#linearGradient987)" stroke-linecap="round" stroke-linejoin="round" stroke-width=".293" ry=".08" style="fill:url(#linearGradient1169);paint-order:stroke fill markers"/><path id="path1121" fill="url(#linearGradient922)" d="m 831,-476.36 v 313.42 c 0,0.0663 0.0536,0.11935 0.11988,0.11935 h 677.09002 c 0.066,0 0.1199,-0.0531 0.1199,-0.11935 v -81.087 c -7.3958,-4.9154 -16.821,-9.4105 -28.73,-12.375 -41.892,-10.428 -59.805,14.251 -86.238,5.4131 -26.433,-8.8379 -73.685,-15.642 -128.76,-19.928 -55.076,-4.2862 -63.176,-19.999 -123,-49.078 -59.827,-29.079 -153.23002,-51.571 -223.65002,-88.306 -44.008,-22.957 -72.083,-50.574 -86.953,-68.06 z" style="fill:url(#linearGradient1171)"/><path id="path1123" fill="url(#linearGradient898)" d="m 643.35,0 c 4.4798,2.0341 182.41,82.968 266.61,144.25 20.311,14.782 40.694,30.758 60.535,46.842 0.0378,0.004 0.0375,1.4e-4 0.0488,0.008 494.93,215.17 833.18,316.22 1589.5,400.37 V 0.43 c -0.01,-0.23288 -0.1932,-0.41734 -0.4257,-0.42969 H 643.41813 Z" transform="matrix(0.26458,0,0,0.26458,831,-543.82)" style="fill:url(#linearGradient1173)"/><path id="path1125" fill="url(#linearGradient885)" d="m 4111.1,-1864.3 c -1.3444,0.2578 23.713,19.906 23.713,19.906 0,0 80.148,75.846 128.12,101.81 100.96,54.653 194.55,84.189 299.2,107.26 48.199,38.178 144.73,85.936 180.83,97.576 400.06,99.37 661.2,173.73 957.81,365.55 v -164.23 c -3.9595,-1.7972 -8.4944,-3.8504 -13.545,-6.123 5.0466,2.2707 9.584,4.3233 13.545,6.1211 v -209.28 c -20.952,-12.17 -51.449,-28.241 -76.848,-35.004 -43.324,-11.536 -164.59,-20.034 -325.03,-37.262 -160.44,-17.228 -223,-86.187 -273.9,-103.52 -50.899,-17.328 -84.668,-3.1122 -134.5,-31.008 -49.834,-27.896 -106.86,-45.646 -176,-45.646 -69.141,0 -216.5,18.009 -340.85,-0.9493 -124.35,-18.958 -184.32,-39.172 -262.32,-65.176 -0.098,-0.034 -0.1694,-0.047 -0.2148,-0.039 z m 1192,378.46 c 7.11,1.5057 13.758,2.9253 19.383,4.1504 3.2484,0.7076 6.6014,1.4838 10.051,2.3262 -3.449,-0.8423 -6.8026,-1.6187 -10.051,-2.3262 -5.532,-1.205 -12.52,-2.6901 -19.383,-4.1504 z" transform="scale(0.26458)" style="fill:url(#linearGradient1175)"/><path id="path1127" fill="url(#linearGradient906)" d="m 923.11,0 c 8.1247,5.0782 83.98,50.523 231.85,73.447 156.74,24.3 118.34,5.3138 210.23,22.279 91.882,16.965 163.11,68.987 259.77,89.33 96.66,20.343 151.64,8.8399 247.4,34.232 95.76,25.393 135.98,69.539 276.79,108.21 126.64,34.781 340.53,94.278 410.85,127.46 V 0.448 c -0.01,-0.24581 -0.2055,-0.44336 -0.4511,-0.44336 z" transform="matrix(0.26458,0,0,0.26458,831,-543.82)" style="fill:url(#linearGradient1177)"/><path id="path1129" fill="url(#linearGradient914)" d="m 1295.8,-543.82 c 8.6497,5.1649 21.301,11.964 39.881,20.804 57.089,27.163 93.518,36.334 121.44,40.02 20.302,2.6807 41.257,6.8388 51.257,8.923 v -69.628 c 0,-0.0663 -0.054,-0.11989 -0.1199,-0.11989 z" style="fill:url(#linearGradient1179)"/><path id="path1131" fill="url(#linearGradient877)" d="m 1201.1,-434.04 c 17.262,6.5032 30.879,30.051 45.831,34.139 19.906,5.4422 36.29,6.0404 57.02,16.6 20.731,10.56 39.033,29.502 60.738,33.708 21.705,4.2064 31.462,2.3177 42.952,10.898 8.0383,6.0027 13.193,19.259 26.76,24.726 20.42,8.2276 45.499,1.4352 58.657,2.2216 8.483,0.50701 13.043,1.1792 15.237,1.5958 v -43.453 c -16.762,-7.6084 -72.578,-32.441 -100.1,-38.435 -32.589,-7.0987 -156.59,-31.743 -187.55,-38.194 -4.8135,-1.003 -14.66,-2.6716 -19.555,-3.8075 z" style="fill:url(#linearGradient1181)"/><path id="path1133" fill="url(#linearGradient983)" d="m 3140.8,-1497.9 v 882.18 c 0,0.16819 0.1365,0.30468 0.3047,0.30468 h 2459 c -19.362,-33.265 -59.938,-78.491 -131.93,-118.48 -108.75,-60.409 -279.88,-107.68 -559.57,-148.09 -279.69,-40.406 -521.37,-110 -773.31,-158.48998 -251.94,-48.487 -585.81,-199.64 -733.98,-284.03 -142.6,-81.216 -252.38,-167 -260.52,-173.4 z" transform="scale(0.26458)" style="fill:url(#linearGradient1183)"/><path id="path1135" fill="url(#linearGradient886)" d="m 831,-476.36 v 313.42 c 0,0.0663 0.0536,0.11935 0.11988,0.11935 h 677.09002 c 0.066,0 0.1199,-0.0531 0.1199,-0.11935 v -81.087 c -7.3958,-4.9154 -16.821,-9.4105 -28.73,-12.375 -41.892,-10.428 -59.805,14.251 -86.238,5.4131 -26.433,-8.8379 -73.685,-15.642 -128.76,-19.928 -55.076,-4.2862 -63.176,-19.999 -123,-49.078 -59.827,-29.079 -153.23002,-51.571 -223.65002,-88.306 -44.008,-22.957 -72.083,-50.574 -86.953,-68.06 z" opacity=".75" style="fill:url(#linearGradient1185)"/></g><rect id="rect1828" width="285.75" height="169.333" x="985.648" y="116.512" fill="#000" stroke-width="0" opacity=".25" rx="21.878" ry="21.878" style="paint-order:stroke fill markers;filter:url(#filter1830);opacity:.15"/><g id="g1734" clip-path="url(#clipPath1824)" transform="matrix(0.99992146,0,0,0.99999768,-41.070041,543.81874)" style="filter:url(#filter1736)"><rect id="rect1714" width="677.33" height="381" x="831" y="-543.82" fill="url(#linearGradient965)" stroke-linecap="round" stroke-linejoin="round" stroke-width=".293" ry=".08" style="fill:url(#linearGradient1167);paint-order:stroke fill markers"/><rect id="rect1716" width="677.33" height="381" x="831" y="-543.82" fill="url(#linearGradient987)" stroke-linecap="round" stroke-linejoin="round" stroke-width=".293" ry=".08" style="fill:url(#linearGradient1169);paint-order:stroke fill markers"/><path id="path1718" fill="url(#linearGradient922)" d="m 831,-476.36 v 313.42 c 0,0.0663 0.0536,0.11935 0.11988,0.11935 h 677.09002 c 0.066,0 0.1199,-0.0531 0.1199,-0.11935 v -81.087 c -7.3958,-4.9154 -16.821,-9.4105 -28.73,-12.375 -41.892,-10.428 -59.805,14.251 -86.238,5.4131 -26.433,-8.8379 -73.685,-15.642 -128.76,-19.928 -55.076,-4.2862 -63.176,-19.999 -123,-49.078 -59.827,-29.079 -153.23002,-51.571 -223.65002,-88.306 -44.008,-22.957 -72.083,-50.574 -86.953,-68.06 z" style="fill:url(#linearGradient1171)"/><path id="path1720" fill="url(#linearGradient898)" d="m 643.35,0 c 4.4798,2.0341 182.41,82.968 266.61,144.25 20.311,14.782 40.694,30.758 60.535,46.842 0.0378,0.004 0.0375,1.4e-4 0.0488,0.008 494.93,215.17 833.18,316.22 1589.5,400.37 V 0.43 c -0.01,-0.23288 -0.1932,-0.41734 -0.4257,-0.42969 H 643.41813 Z" transform="matrix(0.26458,0,0,0.26458,831,-543.82)" style="fill:url(#linearGradient1173)"/><path id="path1722" fill="url(#linearGradient885)" d="m 4111.1,-1864.3 c -1.3444,0.2578 23.713,19.906 23.713,19.906 0,0 80.148,75.846 128.12,101.81 100.96,54.653 194.55,84.189 299.2,107.26 48.199,38.178 144.73,85.936 180.83,97.576 400.06,99.37 661.2,173.73 957.81,365.55 v -164.23 c -3.9595,-1.7972 -8.4944,-3.8504 -13.545,-6.123 5.0466,2.2707 9.584,4.3233 13.545,6.1211 v -209.28 c -20.952,-12.17 -51.449,-28.241 -76.848,-35.004 -43.324,-11.536 -164.59,-20.034 -325.03,-37.262 -160.44,-17.228 -223,-86.187 -273.9,-103.52 -50.899,-17.328 -84.668,-3.1122 -134.5,-31.008 -49.834,-27.896 -106.86,-45.646 -176,-45.646 -69.141,0 -216.5,18.009 -340.85,-0.9493 -124.35,-18.958 -184.32,-39.172 -262.32,-65.176 -0.098,-0.034 -0.1694,-0.047 -0.2148,-0.039 z m 1192,378.46 c 7.11,1.5057 13.758,2.9253 19.383,4.1504 3.2484,0.7076 6.6014,1.4838 10.051,2.3262 -3.449,-0.8423 -6.8026,-1.6187 -10.051,-2.3262 -5.532,-1.205 -12.52,-2.6901 -19.383,-4.1504 z" transform="scale(0.26458)" style="fill:url(#linearGradient1175)"/><path id="path1724" fill="url(#linearGradient906)" d="m 923.11,0 c 8.1247,5.0782 83.98,50.523 231.85,73.447 156.74,24.3 118.34,5.3138 210.23,22.279 91.882,16.965 163.11,68.987 259.77,89.33 96.66,20.343 151.64,8.8399 247.4,34.232 95.76,25.393 135.98,69.539 276.79,108.21 126.64,34.781 340.53,94.278 410.85,127.46 V 0.448 c -0.01,-0.24581 -0.2055,-0.44336 -0.4511,-0.44336 z" transform="matrix(0.26458,0,0,0.26458,831,-543.82)" style="fill:url(#linearGradient1177)"/><path id="path1726" fill="url(#linearGradient914)" d="m 1295.8,-543.82 c 8.6497,5.1649 21.301,11.964 39.881,20.804 57.089,27.163 93.518,36.334 121.44,40.02 20.302,2.6807 41.257,6.8388 51.257,8.923 v -69.628 c 0,-0.0663 -0.054,-0.11989 -0.1199,-0.11989 z" style="fill:url(#linearGradient1179)"/><path id="path1728" fill="url(#linearGradient877)" d="m 1201.1,-434.04 c 17.262,6.5032 30.879,30.051 45.831,34.139 19.906,5.4422 36.29,6.0404 57.02,16.6 20.731,10.56 39.033,29.502 60.738,33.708 21.705,4.2064 31.462,2.3177 42.952,10.898 8.0383,6.0027 13.193,19.259 26.76,24.726 20.42,8.2276 45.499,1.4352 58.657,2.2216 8.483,0.50701 13.043,1.1792 15.237,1.5958 v -43.453 c -16.762,-7.6084 -72.578,-32.441 -100.1,-38.435 -32.589,-7.0987 -156.59,-31.743 -187.55,-38.194 -4.8135,-1.003 -14.66,-2.6716 -19.555,-3.8075 z" style="fill:url(#linearGradient1181)"/><path id="path1730" fill="url(#linearGradient983)" d="m 3140.8,-1497.9 v 882.18 c 0,0.16819 0.1365,0.30468 0.3047,0.30468 h 2459 c -19.362,-33.265 -59.938,-78.491 -131.93,-118.48 -108.75,-60.409 -279.88,-107.68 -559.57,-148.09 -279.69,-40.406 -521.37,-110 -773.31,-158.48998 -251.94,-48.487 -585.81,-199.64 -733.98,-284.03 -142.6,-81.216 -252.38,-167 -260.52,-173.4 z" transform="scale(0.26458)" style="fill:url(#linearGradient1183)"/><path id="path1732" fill="url(#linearGradient886)" d="m 831,-476.36 v 313.42 c 0,0.0663 0.0536,0.11935 0.11988,0.11935 h 677.09002 c 0.066,0 0.1199,-0.0531 0.1199,-0.11935 v -81.087 c -7.3958,-4.9154 -16.821,-9.4105 -28.73,-12.375 -41.892,-10.428 -59.805,14.251 -86.238,5.4131 -26.433,-8.8379 -73.685,-15.642 -128.76,-19.928 -55.076,-4.2862 -63.176,-19.999 -123,-49.078 -59.827,-29.079 -153.23002,-51.571 -223.65002,-88.306 -44.008,-22.957 -72.083,-50.574 -86.953,-68.06 z" opacity=".75" style="fill:url(#linearGradient1185)"/></g><rect id="rect1163" width="285.75" height="169.333" x="985.648" y="105.832" fill="#000" stroke-width="0" opacity=".25" rx="21.878" ry="21.878" style="paint-order:stroke fill markers"/></g><g id="whitesur-ultrawide2k"><g id="g1982" clip-path="url(#clipPath1371)" transform="matrix(1.3436445,0,0,1.3333302,570.35384,683.97512)"><rect id="rect1962" width="677.33" height="381" x="831" y="-543.82" fill="url(#linearGradient965)" stroke-linecap="round" stroke-linejoin="round" stroke-width=".293" ry=".08" style="fill:url(#linearGradient2012);paint-order:stroke fill markers"/><rect id="rect1964" width="677.33" height="381" x="831" y="-543.82" fill="url(#linearGradient987)" stroke-linecap="round" stroke-linejoin="round" stroke-width=".293" ry=".08" style="fill:url(#linearGradient2014);paint-order:stroke fill markers"/><path id="path1966" fill="url(#linearGradient922)" d="m 831,-476.36 v 313.42 c 0,0.0663 0.0536,0.11935 0.11988,0.11935 h 677.09002 c 0.066,0 0.1199,-0.0531 0.1199,-0.11935 v -81.087 c -7.3958,-4.9154 -16.821,-9.4105 -28.73,-12.375 -41.892,-10.428 -59.805,14.251 -86.238,5.4131 -26.433,-8.8379 -73.685,-15.642 -128.76,-19.928 -55.076,-4.2862 -63.176,-19.999 -123,-49.078 -59.827,-29.079 -153.23002,-51.571 -223.65002,-88.306 -44.008,-22.957 -72.083,-50.574 -86.953,-68.06 z" style="fill:url(#linearGradient2016)"/><path id="path1968" fill="url(#linearGradient898)" d="m 643.35,0 c 4.4798,2.0341 182.41,82.968 266.61,144.25 20.311,14.782 40.694,30.758 60.535,46.842 0.0378,0.004 0.0375,1.4e-4 0.0488,0.008 494.93,215.17 833.18,316.22 1589.5,400.37 V 0.43 c -0.01,-0.23288 -0.1932,-0.41734 -0.4257,-0.42969 H 643.41813 Z" transform="matrix(0.26458,0,0,0.26458,831,-543.82)" style="fill:url(#linearGradient2018)"/><path id="path1970" fill="url(#linearGradient885)" d="m 4111.1,-1864.3 c -1.3444,0.2578 23.713,19.906 23.713,19.906 0,0 80.148,75.846 128.12,101.81 100.96,54.653 194.55,84.189 299.2,107.26 48.199,38.178 144.73,85.936 180.83,97.576 400.06,99.37 661.2,173.73 957.81,365.55 v -164.23 c -3.9595,-1.7972 -8.4944,-3.8504 -13.545,-6.123 5.0466,2.2707 9.584,4.3233 13.545,6.1211 v -209.28 c -20.952,-12.17 -51.449,-28.241 -76.848,-35.004 -43.324,-11.536 -164.59,-20.034 -325.03,-37.262 -160.44,-17.228 -223,-86.187 -273.9,-103.52 -50.899,-17.328 -84.668,-3.1122 -134.5,-31.008 -49.834,-27.896 -106.86,-45.646 -176,-45.646 -69.141,0 -216.5,18.009 -340.85,-0.9493 -124.35,-18.958 -184.32,-39.172 -262.32,-65.176 -0.098,-0.034 -0.1694,-0.047 -0.2148,-0.039 z m 1192,378.46 c 7.11,1.5057 13.758,2.9253 19.383,4.1504 3.2484,0.7076 6.6014,1.4838 10.051,2.3262 -3.449,-0.8423 -6.8026,-1.6187 -10.051,-2.3262 -5.532,-1.205 -12.52,-2.6901 -19.383,-4.1504 z" transform="scale(0.26458)" style="fill:url(#linearGradient2020)"/><path id="path1972" fill="url(#linearGradient906)" d="m 923.11,0 c 8.1247,5.0782 83.98,50.523 231.85,73.447 156.74,24.3 118.34,5.3138 210.23,22.279 91.882,16.965 163.11,68.987 259.77,89.33 96.66,20.343 151.64,8.8399 247.4,34.232 95.76,25.393 135.98,69.539 276.79,108.21 126.64,34.781 340.53,94.278 410.85,127.46 V 0.448 c -0.01,-0.24581 -0.2055,-0.44336 -0.4511,-0.44336 z" transform="matrix(0.26458,0,0,0.26458,831,-543.82)" style="fill:url(#linearGradient2022)"/><path id="path1974" fill="url(#linearGradient914)" d="m 1295.8,-543.82 c 8.6497,5.1649 21.301,11.964 39.881,20.804 57.089,27.163 93.518,36.334 121.44,40.02 20.302,2.6807 41.257,6.8388 51.257,8.923 v -69.628 c 0,-0.0663 -0.054,-0.11989 -0.1199,-0.11989 z" style="fill:url(#linearGradient2024)"/><path id="path1976" fill="url(#linearGradient877)" d="m 1201.1,-434.04 c 17.262,6.5032 30.879,30.051 45.831,34.139 19.906,5.4422 36.29,6.0404 57.02,16.6 20.731,10.56 39.033,29.502 60.738,33.708 21.705,4.2064 31.462,2.3177 42.952,10.898 8.0383,6.0027 13.193,19.259 26.76,24.726 20.42,8.2276 45.499,1.4352 58.657,2.2216 8.483,0.50701 13.043,1.1792 15.237,1.5958 v -43.453 c -16.762,-7.6084 -72.578,-32.441 -100.1,-38.435 -32.589,-7.0987 -156.59,-31.743 -187.55,-38.194 -4.8135,-1.003 -14.66,-2.6716 -19.555,-3.8075 z" style="fill:url(#linearGradient2026)"/><path id="path1978" fill="url(#linearGradient983)" d="m 3140.8,-1497.9 v 882.18 c 0,0.16819 0.1365,0.30468 0.3047,0.30468 h 2459 c -19.362,-33.265 -59.938,-78.491 -131.93,-118.48 -108.75,-60.409 -279.88,-107.68 -559.57,-148.09 -279.69,-40.406 -521.37,-110 -773.31,-158.48998 -251.94,-48.487 -585.81,-199.64 -733.98,-284.03 -142.6,-81.216 -252.38,-167 -260.52,-173.4 z" transform="scale(0.26458)" style="fill:url(#linearGradient2028)"/><path id="path1980" fill="url(#linearGradient886)" d="m 831,-476.36 v 313.42 c 0,0.0663 0.0536,0.11935 0.11988,0.11935 h 677.09002 c 0.066,0 0.1199,-0.0531 0.1199,-0.11935 v -81.087 c -7.3958,-4.9154 -16.821,-9.4105 -28.73,-12.375 -41.892,-10.428 -59.805,14.251 -86.238,5.4131 -26.433,-8.8379 -73.685,-15.642 -128.76,-19.928 -55.076,-4.2862 -63.176,-19.999 -123,-49.078 -59.827,-29.079 -153.23002,-51.571 -223.65002,-88.306 -44.008,-22.957 -72.083,-50.574 -86.953,-68.06 z" opacity=".75" style="fill:url(#linearGradient2030)"/></g><rect style="opacity:.15;paint-order:stroke fill markers;filter:url(#filter1830)" id="rect1984" width="285.75" height="169.333" x="985.648" y="116.512" fill="#000" stroke-width="0" opacity=".25" rx="21.878" ry="21.878" transform="matrix(1.34375,0,0,1.34375,625.54171,-41.612593)"/><g id="g2006" clip-path="url(#clipPath1824)" transform="matrix(1.3436445,0,0,1.3437469,570.35384,689.14384)" style="filter:url(#filter1736)"><rect id="rect1986" width="677.33" height="381" x="831" y="-543.82" fill="url(#linearGradient965)" stroke-linecap="round" stroke-linejoin="round" stroke-width=".293" ry=".08" style="fill:url(#linearGradient2032);paint-order:stroke fill markers"/><rect id="rect1988" width="677.33" height="381" x="831" y="-543.82" fill="url(#linearGradient987)" stroke-linecap="round" stroke-linejoin="round" stroke-width=".293" ry=".08" style="fill:url(#linearGradient2034);paint-order:stroke fill markers"/><path id="path1990" fill="url(#linearGradient922)" d="m 831,-476.36 v 313.42 c 0,0.0663 0.0536,0.11935 0.11988,0.11935 h 677.09002 c 0.066,0 0.1199,-0.0531 0.1199,-0.11935 v -81.087 c -7.3958,-4.9154 -16.821,-9.4105 -28.73,-12.375 -41.892,-10.428 -59.805,14.251 -86.238,5.4131 -26.433,-8.8379 -73.685,-15.642 -128.76,-19.928 -55.076,-4.2862 -63.176,-19.999 -123,-49.078 -59.827,-29.079 -153.23002,-51.571 -223.65002,-88.306 -44.008,-22.957 -72.083,-50.574 -86.953,-68.06 z" style="fill:url(#linearGradient2036)"/><path id="path1992" fill="url(#linearGradient898)" d="m 643.35,0 c 4.4798,2.0341 182.41,82.968 266.61,144.25 20.311,14.782 40.694,30.758 60.535,46.842 0.0378,0.004 0.0375,1.4e-4 0.0488,0.008 494.93,215.17 833.18,316.22 1589.5,400.37 V 0.43 c -0.01,-0.23288 -0.1932,-0.41734 -0.4257,-0.42969 H 643.41813 Z" transform="matrix(0.26458,0,0,0.26458,831,-543.82)" style="fill:url(#linearGradient2038)"/><path id="path1994" fill="url(#linearGradient885)" d="m 4111.1,-1864.3 c -1.3444,0.2578 23.713,19.906 23.713,19.906 0,0 80.148,75.846 128.12,101.81 100.96,54.653 194.55,84.189 299.2,107.26 48.199,38.178 144.73,85.936 180.83,97.576 400.06,99.37 661.2,173.73 957.81,365.55 v -164.23 c -3.9595,-1.7972 -8.4944,-3.8504 -13.545,-6.123 5.0466,2.2707 9.584,4.3233 13.545,6.1211 v -209.28 c -20.952,-12.17 -51.449,-28.241 -76.848,-35.004 -43.324,-11.536 -164.59,-20.034 -325.03,-37.262 -160.44,-17.228 -223,-86.187 -273.9,-103.52 -50.899,-17.328 -84.668,-3.1122 -134.5,-31.008 -49.834,-27.896 -106.86,-45.646 -176,-45.646 -69.141,0 -216.5,18.009 -340.85,-0.9493 -124.35,-18.958 -184.32,-39.172 -262.32,-65.176 -0.098,-0.034 -0.1694,-0.047 -0.2148,-0.039 z m 1192,378.46 c 7.11,1.5057 13.758,2.9253 19.383,4.1504 3.2484,0.7076 6.6014,1.4838 10.051,2.3262 -3.449,-0.8423 -6.8026,-1.6187 -10.051,-2.3262 -5.532,-1.205 -12.52,-2.6901 -19.383,-4.1504 z" transform="scale(0.26458)" style="fill:url(#linearGradient2040)"/><path id="path1996" fill="url(#linearGradient906)" d="m 923.11,0 c 8.1247,5.0782 83.98,50.523 231.85,73.447 156.74,24.3 118.34,5.3138 210.23,22.279 91.882,16.965 163.11,68.987 259.77,89.33 96.66,20.343 151.64,8.8399 247.4,34.232 95.76,25.393 135.98,69.539 276.79,108.21 126.64,34.781 340.53,94.278 410.85,127.46 V 0.448 c -0.01,-0.24581 -0.2055,-0.44336 -0.4511,-0.44336 z" transform="matrix(0.26458,0,0,0.26458,831,-543.82)" style="fill:url(#linearGradient2042)"/><path id="path1998" fill="url(#linearGradient914)" d="m 1295.8,-543.82 c 8.6497,5.1649 21.301,11.964 39.881,20.804 57.089,27.163 93.518,36.334 121.44,40.02 20.302,2.6807 41.257,6.8388 51.257,8.923 v -69.628 c 0,-0.0663 -0.054,-0.11989 -0.1199,-0.11989 z" style="fill:url(#linearGradient2044)"/><path id="path2000" fill="url(#linearGradient877)" d="m 1201.1,-434.04 c 17.262,6.5032 30.879,30.051 45.831,34.139 19.906,5.4422 36.29,6.0404 57.02,16.6 20.731,10.56 39.033,29.502 60.738,33.708 21.705,4.2064 31.462,2.3177 42.952,10.898 8.0383,6.0027 13.193,19.259 26.76,24.726 20.42,8.2276 45.499,1.4352 58.657,2.2216 8.483,0.50701 13.043,1.1792 15.237,1.5958 v -43.453 c -16.762,-7.6084 -72.578,-32.441 -100.1,-38.435 -32.589,-7.0987 -156.59,-31.743 -187.55,-38.194 -4.8135,-1.003 -14.66,-2.6716 -19.555,-3.8075 z" style="fill:url(#linearGradient2046)"/><path id="path2002" fill="url(#linearGradient983)" d="m 3140.8,-1497.9 v 882.18 c 0,0.16819 0.1365,0.30468 0.3047,0.30468 h 2459 c -19.362,-33.265 -59.938,-78.491 -131.93,-118.48 -108.75,-60.409 -279.88,-107.68 -559.57,-148.09 -279.69,-40.406 -521.37,-110 -773.31,-158.48998 -251.94,-48.487 -585.81,-199.64 -733.98,-284.03 -142.6,-81.216 -252.38,-167 -260.52,-173.4 z" transform="scale(0.26458)" style="fill:url(#linearGradient2048)"/><path id="path2004" fill="url(#linearGradient886)" d="m 831,-476.36 v 313.42 c 0,0.0663 0.0536,0.11935 0.11988,0.11935 h 677.09002 c 0.066,0 0.1199,-0.0531 0.1199,-0.11935 v -81.087 c -7.3958,-4.9154 -16.821,-9.4105 -28.73,-12.375 -41.892,-10.428 -59.805,14.251 -86.238,5.4131 -26.433,-8.8379 -73.685,-15.642 -128.76,-19.928 -55.076,-4.2862 -63.176,-19.999 -123,-49.078 -59.827,-29.079 -153.23002,-51.571 -223.65002,-88.306 -44.008,-22.957 -72.083,-50.574 -86.953,-68.06 z" opacity=".75" style="fill:url(#linearGradient2050)"/></g><rect id="rect2008" width="383.977" height="227.542" x="1950.006" y="100.6" fill="#000" stroke-width="0" opacity=".25" rx="29.398" ry="29.398" style="paint-order:stroke fill markers"/></g></svg>